<svg xmlns="http://www.w3.org/2000/svg" width="31.008" height="31.004" viewBox="3589.606 809.538 31.008 31.004"><g data-name="Multiple Layers (2)"><path d="M3611.91 820.765c.354.554.626 1.153.832 1.785a7.925 7.925 0 0 1 .304 3.695c-.222 1.464-.798 2.78-1.749 3.912-.654.777-1.418 1.44-2.327 1.924a8.217 8.217 0 0 1-3.648.98c-1.145.038-2.258-.153-3.3-.617-.4-.178-.782-.4-1.157-.634l-2.192 2.192c.678.505 1.422.899 2.198 1.228 1.126.478 2.31.75 3.531.824 1.53.093 3.019-.115 4.464-.637a10.816 10.816 0 0 0 3.934-2.462c.561-.55 1.044-1.19 1.504-1.832.784-1.097 1.271-2.335 1.57-3.646.255-1.118.33-2.249.228-3.394a11.14 11.14 0 0 0-.644-2.885 10.867 10.867 0 0 0-1.081-2.163 9.787 9.787 0 0 0-.302-.434l-2.165 2.164Z" fill="#fff" fill-rule="evenodd" data-name="Path 42"/><path d="M3598.356 829.384a7.699 7.699 0 0 1-1.27-3.9c-.099-1.992.446-3.802 1.688-5.387a7.94 7.94 0 0 1 2.486-2.12 7.9 7.9 0 0 1 3.458-.97 8.042 8.042 0 0 1 3.45.598c.452.187.89.403 1.296.671l2.137-2.137c-.467-.317-.933-.636-1.426-.906-1.067-.583-2.22-.931-3.426-1.114a10.897 10.897 0 0 0-5.175.447 10.622 10.622 0 0 0-3.264 1.77 11.52 11.52 0 0 0-2.155 2.242c-.627.861-1.113 1.79-1.465 2.793a10.908 10.908 0 0 0-.448 5.624c.233 1.298.671 2.523 1.363 3.647.188.305.394.598.602.89l2.15-2.148Z" fill="#fff" fill-rule="evenodd" data-name="Path 41"/></g></svg>