<svg width="1067" height="324" viewBox="0 0 1067 324" fill="none" xmlns="http://www.w3.org/2000/svg">
<path d="M0 324V162V0H1067V324H0Z" fill="white"/>
<path d="M489.926 96.6413C495.513 88.8206 507.244 78.7655 516.741 74.8551C526.238 70.9448 540.763 69.2689 550.259 70.9448C559.756 72.062 574.281 76.531 582.66 79.8827C591.04 83.793 597.744 87.7034 597.744 89.3793C597.744 91.0551 593.833 96.6413 589.364 101.669C582.66 110.048 577.633 110.607 562.549 106.138C553.053 102.786 540.204 101.669 534.617 103.345C529.59 105.021 524.003 111.165 522.327 117.31C520.652 123.455 522.886 132.393 526.238 136.862C530.148 141.89 544.673 149.152 558.639 153.621C572.605 158.09 588.805 167.028 594.95 173.731C602.771 181.552 606.123 192.724 605.565 208.924C605.565 221.772 600.537 238.531 594.392 247.469C588.805 255.848 576.515 265.345 567.019 268.696C557.522 271.49 543.556 273.724 535.176 273.724C526.238 273.724 510.596 269.814 499.982 265.345C489.368 260.876 478.754 253.055 475.96 248.586C473.726 243.559 475.96 236.296 483.223 229.034C494.395 218.421 494.395 218.421 508.361 229.593C516.182 235.738 527.355 240.765 533.5 240.765C539.645 240.207 549.142 237.414 554.728 233.503C561.432 229.034 564.225 221.214 563.108 212.276C561.991 201.103 553.611 194.959 526.238 181.552C507.244 172.614 488.809 160.883 486.016 156.414C483.223 151.945 480.43 139.655 480.43 129.6C480.43 120.103 484.899 105.021 489.926 96.6413Z" fill="#061C2C"/>
<path d="M811.702 101.11C818.406 93.8482 834.048 83.2344 846.338 77.6482C858.628 72.062 875.946 67.0344 885.443 67.0344C894.939 67.0344 912.257 72.062 924.547 77.6482C936.837 83.2344 952.479 93.8482 959.183 101.11C965.887 108.372 975.383 124.014 988.791 156.414H970.356C956.39 155.855 948.01 150.828 932.368 132.393C913.375 111.165 909.464 108.931 885.443 108.931C861.421 108.931 857.511 111.165 838.517 132.393C822.875 150.828 814.495 155.855 782.094 156.414L791.033 135.745C795.502 124.014 804.999 108.372 811.702 101.11Z" fill="#061C2C"/>
<path d="M164.799 175.965C144.688 125.131 128.487 80.9999 129.046 77.6482C129.046 74.8551 136.867 72.6206 146.922 73.7379C163.681 75.4137 164.799 77.6482 202.227 170.379C222.897 222.89 240.215 265.903 240.215 266.462C240.215 267.579 231.277 268.138 201.11 268.138L164.799 175.965Z" fill="#061C2C"/>
<path d="M257.533 136.862C267.03 112.283 277.085 87.7034 279.878 82.1172C283.23 76.531 291.61 72.6206 301.665 72.6206C311.162 72.6206 318.424 74.8551 318.424 78.2068C318.424 80.9999 305.576 117.31 261.443 231.828L240.215 181.552L257.533 136.862Z" fill="#061C2C"/>
<path d="M374.288 238.531C374.288 222.89 375.964 178.759 377.64 140.772L381.55 72.6206H418.979V268.138H374.288V238.531Z" fill="#061C2C"/>
<path d="M675.394 267.579V169.821V72.062H714.499V267.579H675.394Z" fill="#061C2C"/>
<path d="M788.239 206.131C784.888 198.869 783.77 190.49 786.005 188.255C787.681 186.021 796.619 183.786 804.999 183.786C816.73 183.786 822.316 187.696 826.227 197.752C829.579 205.572 839.634 216.745 848.572 222.89C858.069 229.034 874.27 234.062 884.884 234.062C896.057 234.062 911.14 230.152 919.52 224.565C927.341 218.979 937.396 207.807 941.865 199.428C948.01 186.579 952.479 184.345 967.562 185.462C982.087 186.579 985.439 188.814 983.763 197.752C982.646 203.896 975.942 218.421 968.68 230.152C960.3 242.441 945.217 255.848 931.251 261.993C918.402 268.138 897.174 273.165 884.884 273.165C872.594 273.165 852.483 268.696 840.193 263.11C827.903 257.524 812.82 245.793 806.116 236.855C799.412 227.917 791.591 213.952 788.239 206.131Z" fill="#061C2C"/>
</svg>
